<mxfile host="app.diagrams.net" agent="Mozilla/5.0 (Windows NT 10.0; Win64; x64) AppleWebKit/537.36 (KHTML, like Gecko) Chrome/130.0.0.0 Safari/537.36" version="24.8.6">
  <diagram name="Page-1" id="6J_ztvGN_616crfGz0xM">
    <mxGraphModel grid="1" page="1" gridSize="10" guides="1" tooltips="1" connect="1" arrows="1" fold="1" pageScale="1" pageWidth="827" pageHeight="1169" math="0" shadow="0">
      <root>
        <mxCell id="0" />
        <mxCell id="1" parent="0" />
        <mxCell id="tRqtvfWRrzGDVR7e3TuW-1" value="Development Phase" style="rounded=0;whiteSpace=wrap;html=1;verticalAlign=top;" vertex="1" parent="1">
          <mxGeometry x="100" y="280" width="280" height="160" as="geometry" />
        </mxCell>
        <mxCell id="tRqtvfWRrzGDVR7e3TuW-2" value="Planning Phase" style="rounded=0;whiteSpace=wrap;html=1;verticalAlign=top;" vertex="1" parent="1">
          <mxGeometry x="180" y="50" width="120" height="210" as="geometry" />
        </mxCell>
        <mxCell id="GgcKcB7ZS7IENZmVh__E-26" style="edgeStyle=orthogonalEdgeStyle;rounded=0;orthogonalLoop=1;jettySize=auto;html=1;exitX=0.5;exitY=0;exitDx=0;exitDy=0;entryX=0.5;entryY=1;entryDx=0;entryDy=0;" edge="1" parent="1" source="tRqtvfWRrzGDVR7e3TuW-3" target="GgcKcB7ZS7IENZmVh__E-25">
          <mxGeometry relative="1" as="geometry" />
        </mxCell>
        <mxCell id="tRqtvfWRrzGDVR7e3TuW-3" value="Deployment" style="rounded=0;whiteSpace=wrap;html=1;verticalAlign=top;" vertex="1" parent="1">
          <mxGeometry x="401" y="280" width="229" height="160" as="geometry" />
        </mxCell>
        <mxCell id="GgcKcB7ZS7IENZmVh__E-17" style="edgeStyle=orthogonalEdgeStyle;rounded=0;orthogonalLoop=1;jettySize=auto;html=1;" edge="1" parent="1" source="tRqtvfWRrzGDVR7e3TuW-4" target="GgcKcB7ZS7IENZmVh__E-7">
          <mxGeometry relative="1" as="geometry" />
        </mxCell>
        <mxCell id="tRqtvfWRrzGDVR7e3TuW-4" value="Testing Phase" style="rounded=0;whiteSpace=wrap;html=1;verticalAlign=top;" vertex="1" parent="1">
          <mxGeometry x="110" y="470" width="120" height="210" as="geometry" />
        </mxCell>
        <mxCell id="GgcKcB7ZS7IENZmVh__E-8" style="edgeStyle=orthogonalEdgeStyle;rounded=0;orthogonalLoop=1;jettySize=auto;html=1;" edge="1" parent="1" source="tRqtvfWRrzGDVR7e3TuW-5" target="tRqtvfWRrzGDVR7e3TuW-6">
          <mxGeometry relative="1" as="geometry" />
        </mxCell>
        <mxCell id="tRqtvfWRrzGDVR7e3TuW-5" value="Preliminary Planning" style="rounded=1;whiteSpace=wrap;html=1;" vertex="1" parent="1">
          <mxGeometry x="190" y="80" width="100" height="40" as="geometry" />
        </mxCell>
        <mxCell id="GgcKcB7ZS7IENZmVh__E-9" style="edgeStyle=orthogonalEdgeStyle;rounded=0;orthogonalLoop=1;jettySize=auto;html=1;" edge="1" parent="1" source="tRqtvfWRrzGDVR7e3TuW-6" target="tRqtvfWRrzGDVR7e3TuW-7">
          <mxGeometry relative="1" as="geometry" />
        </mxCell>
        <mxCell id="tRqtvfWRrzGDVR7e3TuW-6" value="Background Research" style="rounded=1;whiteSpace=wrap;html=1;" vertex="1" parent="1">
          <mxGeometry x="190" y="140" width="100" height="40" as="geometry" />
        </mxCell>
        <mxCell id="GgcKcB7ZS7IENZmVh__E-10" style="edgeStyle=orthogonalEdgeStyle;rounded=0;orthogonalLoop=1;jettySize=auto;html=1;" edge="1" parent="1" source="tRqtvfWRrzGDVR7e3TuW-7" target="tRqtvfWRrzGDVR7e3TuW-9">
          <mxGeometry relative="1" as="geometry" />
        </mxCell>
        <mxCell id="GgcKcB7ZS7IENZmVh__E-11" style="edgeStyle=orthogonalEdgeStyle;rounded=0;orthogonalLoop=1;jettySize=auto;html=1;" edge="1" parent="1" source="tRqtvfWRrzGDVR7e3TuW-7" target="tRqtvfWRrzGDVR7e3TuW-8">
          <mxGeometry relative="1" as="geometry" />
        </mxCell>
        <mxCell id="tRqtvfWRrzGDVR7e3TuW-7" value="Preliminary Design" style="rounded=1;whiteSpace=wrap;html=1;" vertex="1" parent="1">
          <mxGeometry x="190" y="200" width="100" height="40" as="geometry" />
        </mxCell>
        <mxCell id="GgcKcB7ZS7IENZmVh__E-14" style="edgeStyle=orthogonalEdgeStyle;rounded=0;orthogonalLoop=1;jettySize=auto;html=1;exitX=0.5;exitY=1;exitDx=0;exitDy=0;entryX=0.5;entryY=0;entryDx=0;entryDy=0;" edge="1" parent="1" source="tRqtvfWRrzGDVR7e3TuW-8" target="tRqtvfWRrzGDVR7e3TuW-4">
          <mxGeometry relative="1" as="geometry" />
        </mxCell>
        <mxCell id="tRqtvfWRrzGDVR7e3TuW-8" value="Hardware Development" style="rhombus;whiteSpace=wrap;html=1;" vertex="1" parent="1">
          <mxGeometry x="250" y="310" width="120" height="120" as="geometry" />
        </mxCell>
        <mxCell id="GgcKcB7ZS7IENZmVh__E-13" style="edgeStyle=orthogonalEdgeStyle;rounded=0;orthogonalLoop=1;jettySize=auto;html=1;exitX=0.5;exitY=1;exitDx=0;exitDy=0;entryX=0.5;entryY=0;entryDx=0;entryDy=0;" edge="1" parent="1" source="tRqtvfWRrzGDVR7e3TuW-9" target="tRqtvfWRrzGDVR7e3TuW-4">
          <mxGeometry relative="1" as="geometry" />
        </mxCell>
        <mxCell id="tRqtvfWRrzGDVR7e3TuW-9" value="Software Development" style="rhombus;whiteSpace=wrap;html=1;" vertex="1" parent="1">
          <mxGeometry x="110" y="310" width="120" height="120" as="geometry" />
        </mxCell>
        <mxCell id="GgcKcB7ZS7IENZmVh__E-15" style="edgeStyle=orthogonalEdgeStyle;rounded=0;orthogonalLoop=1;jettySize=auto;html=1;exitX=0.5;exitY=1;exitDx=0;exitDy=0;" edge="1" parent="1" source="tRqtvfWRrzGDVR7e3TuW-14" target="tRqtvfWRrzGDVR7e3TuW-15">
          <mxGeometry relative="1" as="geometry" />
        </mxCell>
        <mxCell id="tRqtvfWRrzGDVR7e3TuW-14" value="Component Testing" style="rounded=1;whiteSpace=wrap;html=1;" vertex="1" parent="1">
          <mxGeometry x="121" y="500" width="100" height="40" as="geometry" />
        </mxCell>
        <mxCell id="GgcKcB7ZS7IENZmVh__E-16" style="edgeStyle=orthogonalEdgeStyle;rounded=0;orthogonalLoop=1;jettySize=auto;html=1;exitX=0.5;exitY=1;exitDx=0;exitDy=0;entryX=0.5;entryY=0;entryDx=0;entryDy=0;" edge="1" parent="1" source="tRqtvfWRrzGDVR7e3TuW-15" target="tRqtvfWRrzGDVR7e3TuW-16">
          <mxGeometry relative="1" as="geometry" />
        </mxCell>
        <mxCell id="tRqtvfWRrzGDVR7e3TuW-15" value="Integration&amp;nbsp; Testing" style="rounded=1;whiteSpace=wrap;html=1;" vertex="1" parent="1">
          <mxGeometry x="121" y="560" width="100" height="40" as="geometry" />
        </mxCell>
        <mxCell id="tRqtvfWRrzGDVR7e3TuW-16" value="System Testing" style="rounded=1;whiteSpace=wrap;html=1;" vertex="1" parent="1">
          <mxGeometry x="121" y="620" width="100" height="40" as="geometry" />
        </mxCell>
        <mxCell id="GgcKcB7ZS7IENZmVh__E-1" value="Final Assembly" style="rounded=1;whiteSpace=wrap;html=1;" vertex="1" parent="1">
          <mxGeometry x="410" y="325" width="100" height="40" as="geometry" />
        </mxCell>
        <mxCell id="GgcKcB7ZS7IENZmVh__E-2" value="Field Testing" style="rounded=1;whiteSpace=wrap;html=1;" vertex="1" parent="1">
          <mxGeometry x="410" y="375" width="100" height="40" as="geometry" />
        </mxCell>
        <mxCell id="GgcKcB7ZS7IENZmVh__E-3" value="Presentation and Submissions" style="rounded=1;whiteSpace=wrap;html=1;" vertex="1" parent="1">
          <mxGeometry x="521" y="320" width="100" height="100" as="geometry" />
        </mxCell>
        <mxCell id="GgcKcB7ZS7IENZmVh__E-5" style="edgeStyle=orthogonalEdgeStyle;rounded=0;orthogonalLoop=1;jettySize=auto;html=1;entryX=1;entryY=0.5;entryDx=0;entryDy=0;" edge="1" parent="1" source="GgcKcB7ZS7IENZmVh__E-4" target="GgcKcB7ZS7IENZmVh__E-3">
          <mxGeometry relative="1" as="geometry" />
        </mxCell>
        <mxCell id="GgcKcB7ZS7IENZmVh__E-4" value="Documentation" style="text;html=1;align=center;verticalAlign=middle;whiteSpace=wrap;rounded=0;" vertex="1" parent="1">
          <mxGeometry x="660" y="357.5" width="90" height="25" as="geometry" />
        </mxCell>
        <mxCell id="GgcKcB7ZS7IENZmVh__E-18" style="edgeStyle=orthogonalEdgeStyle;rounded=0;orthogonalLoop=1;jettySize=auto;html=1;entryX=0.5;entryY=1;entryDx=0;entryDy=0;" edge="1" parent="1" source="GgcKcB7ZS7IENZmVh__E-7" target="tRqtvfWRrzGDVR7e3TuW-3">
          <mxGeometry relative="1" as="geometry" />
        </mxCell>
        <mxCell id="GgcKcB7ZS7IENZmVh__E-21" value="Yes" style="edgeLabel;html=1;align=center;verticalAlign=middle;resizable=0;points=[];" connectable="0" vertex="1" parent="GgcKcB7ZS7IENZmVh__E-18">
          <mxGeometry x="-0.7283" y="-3" relative="1" as="geometry">
            <mxPoint as="offset" />
          </mxGeometry>
        </mxCell>
        <mxCell id="GgcKcB7ZS7IENZmVh__E-19" style="edgeStyle=orthogonalEdgeStyle;rounded=0;orthogonalLoop=1;jettySize=auto;html=1;entryX=0.5;entryY=0;entryDx=0;entryDy=0;" edge="1" parent="1" source="GgcKcB7ZS7IENZmVh__E-7" target="tRqtvfWRrzGDVR7e3TuW-1">
          <mxGeometry relative="1" as="geometry">
            <Array as="points">
              <mxPoint x="310" y="478" />
              <mxPoint x="390" y="478" />
              <mxPoint x="390" y="270" />
              <mxPoint x="240" y="270" />
            </Array>
          </mxGeometry>
        </mxCell>
        <mxCell id="GgcKcB7ZS7IENZmVh__E-20" value="No" style="edgeLabel;html=1;align=center;verticalAlign=middle;resizable=0;points=[];" connectable="0" vertex="1" parent="GgcKcB7ZS7IENZmVh__E-19">
          <mxGeometry x="-0.7934" relative="1" as="geometry">
            <mxPoint as="offset" />
          </mxGeometry>
        </mxCell>
        <mxCell id="GgcKcB7ZS7IENZmVh__E-7" value="Requirements&amp;nbsp;&lt;div&gt;&amp;nbsp;Met?&lt;/div&gt;" style="rhombus;whiteSpace=wrap;html=1;" vertex="1" parent="1">
          <mxGeometry x="250" y="515" width="120" height="120" as="geometry" />
        </mxCell>
        <mxCell id="GgcKcB7ZS7IENZmVh__E-23" style="edgeStyle=orthogonalEdgeStyle;rounded=0;orthogonalLoop=1;jettySize=auto;html=1;" edge="1" parent="1" source="GgcKcB7ZS7IENZmVh__E-22" target="tRqtvfWRrzGDVR7e3TuW-6">
          <mxGeometry relative="1" as="geometry" />
        </mxCell>
        <mxCell id="GgcKcB7ZS7IENZmVh__E-22" value="Supervisors&lt;div&gt;Local Beekeepers&lt;/div&gt;&lt;div&gt;Hive Monitoring Companies&lt;/div&gt;" style="text;html=1;align=center;verticalAlign=middle;whiteSpace=wrap;rounded=0;" vertex="1" parent="1">
          <mxGeometry x="40" y="145" width="120" height="30" as="geometry" />
        </mxCell>
        <mxCell id="GgcKcB7ZS7IENZmVh__E-27" style="edgeStyle=orthogonalEdgeStyle;rounded=0;orthogonalLoop=1;jettySize=auto;html=1;entryX=0.5;entryY=0;entryDx=0;entryDy=0;" edge="1" parent="1" source="GgcKcB7ZS7IENZmVh__E-25" target="tRqtvfWRrzGDVR7e3TuW-2">
          <mxGeometry relative="1" as="geometry" />
        </mxCell>
        <mxCell id="GgcKcB7ZS7IENZmVh__E-25" value="Review" style="rounded=0;whiteSpace=wrap;html=1;verticalAlign=top;" vertex="1" parent="1">
          <mxGeometry x="450.5" y="210" width="130" height="30" as="geometry" />
        </mxCell>
      </root>
    </mxGraphModel>
  </diagram>
</mxfile>
